<?xml version="1.0" encoding="UTF-8" standalone="no"?>
<!-- Created with Inkscape (http://www.inkscape.org/) -->

<svg
   xmlns:dc="http://purl.org/dc/elements/1.1/"
   xmlns:cc="http://creativecommons.org/ns#"
   xmlns:rdf="http://www.w3.org/1999/02/22-rdf-syntax-ns#"
   xmlns:svg="http://www.w3.org/2000/svg"
   xmlns="http://www.w3.org/2000/svg"
   xmlns:sodipodi="http://sodipodi.sourceforge.net/DTD/sodipodi-0.dtd"
   xmlns:inkscape="http://www.inkscape.org/namespaces/inkscape"
   width="1545"
   height="582.14288"
   id="svg3952"
   version="1.1"
   inkscape:version="0.48.3.1 r9886"
   sodipodi:docname="deleteMin1.svg">
  <defs
     id="defs3954" />
  <sodipodi:namedview
     id="base"
     pagecolor="#ffffff"
     bordercolor="#666666"
     borderopacity="1.0"
     inkscape:pageopacity="0.0"
     inkscape:pageshadow="2"
     inkscape:zoom="0.35"
     inkscape:cx="728.92858"
     inkscape:cy="155.35715"
     inkscape:document-units="px"
     inkscape:current-layer="layer1"
     showgrid="false"
     inkscape:window-width="1022"
     inkscape:window-height="598"
     inkscape:window-x="0"
     inkscape:window-y="0"
     inkscape:window-maximized="0"
     fit-margin-top="0"
     fit-margin-left="0"
     fit-margin-right="0"
     fit-margin-bottom="0" />
  <metadata
     id="metadata3957">
    <rdf:RDF>
      <cc:Work
         rdf:about="">
        <dc:format>image/svg+xml</dc:format>
        <dc:type
           rdf:resource="http://purl.org/dc/dcmitype/StillImage" />
        <dc:title></dc:title>
      </cc:Work>
    </rdf:RDF>
  </metadata>
  <g
     inkscape:label="Layer 1"
     inkscape:groupmode="layer"
     id="layer1"
     transform="translate(353.92858,-105.57647)">
    <text
       xml:space="preserve"
       style="font-size:40px;font-style:normal;font-weight:normal;line-height:125%;letter-spacing:0px;word-spacing:0px;fill:#000000;fill-opacity:1;stroke:none;font-family:Sans"
       x="-262.85715"
       y="533.79077"
       id="text2985"
       sodipodi:linespacing="125%"><tspan
         sodipodi:role="line"
         id="tspan2987"
         x="-262.85715"
         y="533.79077">3</tspan></text>
    <path
       transform="translate(-414.28572,267.14286)"
       sodipodi:type="arc"
       id="path2989"
       sodipodi:cx="164.28572"
       sodipodi:cy="248.07646"
       sodipodi:rx="41.42857"
       sodipodi:ry="44.285713"
       d="m 205.71429,248.07646 c 0,24.45833 -18.5482,44.28571 -41.42857,44.28571 -22.88037,0 -41.42857,-19.82738 -41.42857,-44.28571 0,-24.45832 18.5482,-44.28571 41.42857,-44.28571 22.88037,0 41.42857,19.82739 41.42857,44.28571 z"
       style="fill:none;stroke:#000000;stroke-width:5;stroke-miterlimit:4;stroke-opacity:1;stroke-dasharray:none" />
    <path
       style="fill:none;stroke:#000000;stroke-width:5;stroke-linecap:butt;stroke-linejoin:miter;stroke-miterlimit:4;stroke-opacity:1;stroke-dasharray:none"
       d="m -274.28572,550.93361 -77.14286,134.28572 188.57143,-2.85714 -62.85714,-128.57143"
       id="path3767"
       inkscape:connector-curvature="0" />
    <text
       xml:space="preserve"
       style="font-size:40px;font-style:normal;font-weight:normal;line-height:125%;letter-spacing:0px;word-spacing:0px;fill:#000000;fill-opacity:1;stroke:none;font-family:Sans"
       x="358.57144"
       y="170.93362"
       id="text2985-5"
       sodipodi:linespacing="125%"><tspan
         sodipodi:role="line"
         id="tspan2987-9"
         x="358.57144"
         y="170.93362">1</tspan></text>
    <path
       transform="translate(207.14285,-95.714277)"
       sodipodi:type="arc"
       id="path2989-6"
       sodipodi:cx="164.28572"
       sodipodi:cy="248.07646"
       sodipodi:rx="41.42857"
       sodipodi:ry="44.285713"
       d="m 205.71429,248.07646 c 0,24.45833 -18.5482,44.28571 -41.42857,44.28571 -22.88037,0 -41.42857,-19.82738 -41.42857,-44.28571 0,-24.45832 18.5482,-44.28571 41.42857,-44.28571 22.88037,0 41.42857,19.82739 41.42857,44.28571 z"
       style="fill:none;stroke:#000000;stroke-width:5;stroke-miterlimit:4;stroke-opacity:1;stroke-dasharray:none" />
    <text
       xml:space="preserve"
       style="font-size:40px;font-style:normal;font-weight:normal;line-height:125%;letter-spacing:0px;word-spacing:0px;fill:#000000;fill-opacity:1;stroke:none;font-family:Sans"
       x="-37.142849"
       y="530.93359"
       id="text2985-8"
       sodipodi:linespacing="125%"><tspan
         sodipodi:role="line"
         id="tspan2987-8"
         x="-37.142849"
         y="530.93359">6</tspan></text>
    <path
       transform="translate(-188.57143,264.28571)"
       sodipodi:type="arc"
       id="path2989-7"
       sodipodi:cx="164.28572"
       sodipodi:cy="248.07646"
       sodipodi:rx="41.42857"
       sodipodi:ry="44.285713"
       d="m 205.71429,248.07646 c 0,24.45833 -18.5482,44.28571 -41.42857,44.28571 -22.88037,0 -41.42857,-19.82738 -41.42857,-44.28571 0,-24.45832 18.5482,-44.28571 41.42857,-44.28571 22.88037,0 41.42857,19.82739 41.42857,44.28571 z"
       style="fill:none;stroke:#000000;stroke-width:5;stroke-miterlimit:4;stroke-opacity:1;stroke-dasharray:none" />
    <path
       style="fill:none;stroke:#000000;stroke-width:5;stroke-linecap:butt;stroke-linejoin:miter;stroke-miterlimit:4;stroke-opacity:1;stroke-dasharray:none"
       d="M -48.571423,548.07646 -125.71429,682.36218 62.857147,679.50504 7.1428571e-6,550.93361"
       id="path3767-4"
       inkscape:connector-curvature="0" />
    <text
       xml:space="preserve"
       style="font-size:40px;font-style:normal;font-weight:normal;line-height:125%;letter-spacing:0px;word-spacing:0px;fill:#000000;fill-opacity:1;stroke:none;font-family:Sans"
       x="191.42857"
       y="525.21936"
       id="text2985-2"
       sodipodi:linespacing="125%"><tspan
         sodipodi:role="line"
         id="tspan2987-1"
         x="191.42857"
         y="525.21936">4</tspan></text>
    <path
       transform="translate(40.000002,258.57143)"
       sodipodi:type="arc"
       id="path2989-2"
       sodipodi:cx="164.28572"
       sodipodi:cy="248.07646"
       sodipodi:rx="41.42857"
       sodipodi:ry="44.285713"
       d="m 205.71429,248.07646 c 0,24.45833 -18.5482,44.28571 -41.42857,44.28571 -22.88037,0 -41.42857,-19.82738 -41.42857,-44.28571 0,-24.45832 18.5482,-44.28571 41.42857,-44.28571 22.88037,0 41.42857,19.82739 41.42857,44.28571 z"
       style="fill:none;stroke:#000000;stroke-width:5;stroke-miterlimit:4;stroke-opacity:1;stroke-dasharray:none" />
    <path
       style="fill:none;stroke:#000000;stroke-width:5;stroke-linecap:butt;stroke-linejoin:miter;stroke-miterlimit:4;stroke-opacity:1;stroke-dasharray:none"
       d="M 180.00001,542.36218 102.85715,676.6479 291.42858,673.79076 228.57144,545.21933"
       id="path3767-1"
       inkscape:connector-curvature="0" />
    <text
       xml:space="preserve"
       style="font-size:40px;font-style:normal;font-weight:normal;line-height:125%;letter-spacing:0px;word-spacing:0px;fill:#000000;fill-opacity:1;stroke:none;font-family:Sans"
       x="417.14285"
       y="522.36218"
       id="text2985-7"
       sodipodi:linespacing="125%"><tspan
         sodipodi:role="line"
         id="tspan2987-2"
         x="417.14285"
         y="522.36218">2</tspan></text>
    <path
       transform="translate(265.71429,255.71428)"
       sodipodi:type="arc"
       id="path2989-63"
       sodipodi:cx="164.28572"
       sodipodi:cy="248.07646"
       sodipodi:rx="41.42857"
       sodipodi:ry="44.285713"
       d="m 205.71429,248.07646 c 0,24.45833 -18.5482,44.28571 -41.42857,44.28571 -22.88037,0 -41.42857,-19.82738 -41.42857,-44.28571 0,-24.45832 18.5482,-44.28571 41.42857,-44.28571 22.88037,0 41.42857,19.82739 41.42857,44.28571 z"
       style="fill:none;stroke:#000000;stroke-width:5;stroke-miterlimit:4;stroke-opacity:1;stroke-dasharray:none" />
    <path
       style="fill:none;stroke:#000000;stroke-width:5;stroke-linecap:butt;stroke-linejoin:miter;stroke-miterlimit:4;stroke-opacity:1;stroke-dasharray:none"
       d="M 405.71429,539.50504 328.57143,673.79075 517.14286,670.93361 454.28572,542.36219"
       id="path3767-6"
       inkscape:connector-curvature="0" />
    <text
       xml:space="preserve"
       style="font-size:40px;font-style:normal;font-weight:normal;line-height:125%;letter-spacing:0px;word-spacing:0px;fill:#000000;fill-opacity:1;stroke:none;font-family:Sans"
       x="634.28577"
       y="516.64795"
       id="text2985-0"
       sodipodi:linespacing="125%"><tspan
         sodipodi:role="line"
         id="tspan2987-88"
         x="634.28577"
         y="516.64795">10</tspan></text>
    <path
       transform="translate(491.42857,252.85714)"
       sodipodi:type="arc"
       id="path2989-70"
       sodipodi:cx="164.28572"
       sodipodi:cy="248.07646"
       sodipodi:rx="41.42857"
       sodipodi:ry="44.285713"
       d="m 205.71429,248.07646 c 0,24.45833 -18.5482,44.28571 -41.42857,44.28571 -22.88037,0 -41.42857,-19.82738 -41.42857,-44.28571 0,-24.45832 18.5482,-44.28571 41.42857,-44.28571 22.88037,0 41.42857,19.82739 41.42857,44.28571 z"
       style="fill:none;stroke:#000000;stroke-width:5;stroke-miterlimit:4;stroke-opacity:1;stroke-dasharray:none" />
    <path
       style="fill:none;stroke:#000000;stroke-width:5;stroke-linecap:butt;stroke-linejoin:miter;stroke-miterlimit:4;stroke-opacity:1;stroke-dasharray:none"
       d="M 631.42857,536.6479 554.28571,670.93361 742.85714,668.07647 680,539.50505"
       id="path3767-8"
       inkscape:connector-curvature="0" />
    <text
       xml:space="preserve"
       style="font-size:40px;font-style:normal;font-weight:normal;line-height:125%;letter-spacing:0px;word-spacing:0px;fill:#000000;fill-opacity:1;stroke:none;font-family:Sans"
       x="860"
       y="516.64795"
       id="text2985-9"
       sodipodi:linespacing="125%"><tspan
         sodipodi:role="line"
         id="tspan2987-98"
         x="860"
         y="516.64795">8</tspan></text>
    <path
       transform="translate(708.57143,250)"
       sodipodi:type="arc"
       id="path2989-4"
       sodipodi:cx="164.28572"
       sodipodi:cy="248.07646"
       sodipodi:rx="41.42857"
       sodipodi:ry="44.285713"
       d="m 205.71429,248.07646 c 0,24.45833 -18.5482,44.28571 -41.42857,44.28571 -22.88037,0 -41.42857,-19.82738 -41.42857,-44.28571 0,-24.45832 18.5482,-44.28571 41.42857,-44.28571 22.88037,0 41.42857,19.82739 41.42857,44.28571 z"
       style="fill:none;stroke:#000000;stroke-width:5;stroke-miterlimit:4;stroke-opacity:1;stroke-dasharray:none" />
    <path
       style="fill:none;stroke:#000000;stroke-width:5;stroke-linecap:butt;stroke-linejoin:miter;stroke-miterlimit:4;stroke-opacity:1;stroke-dasharray:none"
       d="M 848.57143,533.79075 771.42857,668.07647 960.00004,665.21933 897.14286,536.6479"
       id="path3767-2"
       inkscape:connector-curvature="0" />
    <text
       xml:space="preserve"
       style="font-size:40px;font-style:normal;font-weight:normal;line-height:125%;letter-spacing:0px;word-spacing:0px;fill:#000000;fill-opacity:1;stroke:none;font-family:Sans"
       x="1088.5714"
       y="516.64789"
       id="text2985-6"
       sodipodi:linespacing="125%"><tspan
         sodipodi:role="line"
         id="tspan2987-87"
         x="1088.5714"
         y="516.64789">5</tspan></text>
    <path
       transform="translate(937.14289,250)"
       sodipodi:type="arc"
       id="path2989-8"
       sodipodi:cx="164.28572"
       sodipodi:cy="248.07646"
       sodipodi:rx="41.42857"
       sodipodi:ry="44.285713"
       d="m 205.71429,248.07646 c 0,24.45833 -18.5482,44.28571 -41.42857,44.28571 -22.88037,0 -41.42857,-19.82738 -41.42857,-44.28571 0,-24.45832 18.5482,-44.28571 41.42857,-44.28571 22.88037,0 41.42857,19.82739 41.42857,44.28571 z"
       style="fill:none;stroke:#000000;stroke-width:5;stroke-miterlimit:4;stroke-opacity:1;stroke-dasharray:none" />
    <path
       style="fill:none;stroke:#000000;stroke-width:5;stroke-linecap:butt;stroke-linejoin:miter;stroke-miterlimit:4;stroke-opacity:1;stroke-dasharray:none"
       d="M 1077.1428,533.79075 999.99999,668.07647 1188.5714,665.21933 1125.7143,536.6479"
       id="path3767-5"
       inkscape:connector-curvature="0" />
    <path
       style="fill:none;stroke:#000000;stroke-width:1px;stroke-linecap:butt;stroke-linejoin:miter;stroke-opacity:1"
       d="M 334.28571,160.93361 C -231.42857,469.50504 -231.42857,469.50504 -231.42857,469.50504"
       id="path4089"
       inkscape:connector-curvature="0" />
    <path
       style="fill:none;stroke:#000000;stroke-width:1px;stroke-linecap:butt;stroke-linejoin:miter;stroke-opacity:1"
       d="M -11.428571,463.79075 C 351.42857,189.50504 351.42857,189.50504 351.42857,189.50504"
       id="path4091"
       inkscape:connector-curvature="0" />
    <path
       style="fill:none;stroke:#000000;stroke-width:1px;stroke-linecap:butt;stroke-linejoin:miter;stroke-opacity:1"
       d="M 214.28571,452.36218 C 360,198.07647 362.85714,198.07647 362.85714,198.07647"
       id="path4093"
       inkscape:connector-curvature="0" />
    <path
       style="fill:none;stroke:#000000;stroke-width:1px;stroke-linecap:butt;stroke-linejoin:miter;stroke-opacity:1"
       d="M 434.28571,460.93361 C 377.14286,192.36218 377.14286,195.21933 377.14286,195.21933"
       id="path4095"
       inkscape:connector-curvature="0" />
    <path
       style="fill:none;stroke:#000000;stroke-width:1px;stroke-linecap:butt;stroke-linejoin:miter;stroke-opacity:1"
       d="M 640,455.21933 C 400,183.79075 400,183.79075 400,183.79075"
       id="path4097"
       inkscape:connector-curvature="0" />
    <path
       style="fill:none;stroke:#000000;stroke-width:1px;stroke-linecap:butt;stroke-linejoin:miter;stroke-opacity:1"
       d="M 860,452.36218 C 405.71429,163.79075 405.71429,163.79075 405.71429,163.79075"
       id="path4099"
       inkscape:connector-curvature="0" />
    <path
       style="fill:none;stroke:#000000;stroke-width:1px;stroke-linecap:butt;stroke-linejoin:miter;stroke-opacity:1"
       d="M 1094.2857,452.36218 C 414.28571,138.07647 411.42857,138.07647 411.42857,138.07647"
       id="path4101"
       inkscape:connector-curvature="0" />
  </g>
</svg>
