<?xml version="1.0" encoding="UTF-8" standalone="no"?>
<!-- Created with Inkscape (http://www.inkscape.org/) -->

<svg
   xmlns:dc="http://purl.org/dc/elements/1.1/"
   xmlns:cc="http://creativecommons.org/ns#"
   xmlns:rdf="http://www.w3.org/1999/02/22-rdf-syntax-ns#"
   xmlns:svg="http://www.w3.org/2000/svg"
   xmlns="http://www.w3.org/2000/svg"
   xmlns:sodipodi="http://sodipodi.sourceforge.net/DTD/sodipodi-0.dtd"
   xmlns:inkscape="http://www.inkscape.org/namespaces/inkscape"
   width="1450.7142"
   height="562.14288"
   id="svg4463"
   version="1.1"
   inkscape:version="0.48.3.1 r9886"
   sodipodi:docname="deleteMin3.svg">
  <defs
     id="defs4465" />
  <sodipodi:namedview
     id="base"
     pagecolor="#ffffff"
     bordercolor="#666666"
     borderopacity="1.0"
     inkscape:pageopacity="0.0"
     inkscape:pageshadow="2"
     inkscape:zoom="0.35"
     inkscape:cx="750.35716"
     inkscape:cy="191.07143"
     inkscape:document-units="px"
     inkscape:current-layer="layer1"
     showgrid="false"
     inkscape:window-width="1022"
     inkscape:window-height="598"
     inkscape:window-x="0"
     inkscape:window-y="0"
     inkscape:window-maximized="0"
     fit-margin-top="0"
     fit-margin-left="0"
     fit-margin-right="0"
     fit-margin-bottom="0" />
  <metadata
     id="metadata4468">
    <rdf:RDF>
      <cc:Work
         rdf:about="">
        <dc:format>image/svg+xml</dc:format>
        <dc:type
           rdf:resource="http://purl.org/dc/dcmitype/StillImage" />
        <dc:title />
      </cc:Work>
    </rdf:RDF>
  </metadata>
  <g
     inkscape:label="Layer 1"
     inkscape:groupmode="layer"
     id="layer1"
     transform="translate(375.35716,-161.29075)">
    <text
       xml:space="preserve"
       style="font-size:40px;font-style:normal;font-weight:normal;line-height:125%;letter-spacing:0px;word-spacing:0px;fill:#000000;fill-opacity:1;stroke:none;font-family:Sans"
       x="-72.857155"
       y="415.21933"
       id="text2985"
       sodipodi:linespacing="125%"><tspan
         sodipodi:role="line"
         id="tspan2987"
         x="-72.857155"
         y="415.21933">3</tspan></text>
    <path
       transform="translate(-224.28574,148.57143)"
       sodipodi:type="arc"
       id="path2989"
       sodipodi:cx="164.28572"
       sodipodi:cy="248.07646"
       sodipodi:rx="41.42857"
       sodipodi:ry="44.285713"
       d="m 205.71429,248.07646 c 0,24.45833 -18.5482,44.28571 -41.42857,44.28571 -22.88037,0 -41.42857,-19.82738 -41.42857,-44.28571 0,-24.45832 18.5482,-44.28571 41.42857,-44.28571 22.88037,0 41.42857,19.82739 41.42857,44.28571 z"
       style="fill:none;stroke:#000000;stroke-width:5;stroke-miterlimit:4;stroke-opacity:1;stroke-dasharray:none" />
    <path
       style="fill:none;stroke:#000000;stroke-width:5;stroke-linecap:butt;stroke-linejoin:miter;stroke-miterlimit:4;stroke-opacity:1;stroke-dasharray:none"
       d="M -84.285737,432.36218 -161.4286,566.6479 27.142833,563.79076 -35.714307,435.21933"
       id="path3767"
       inkscape:connector-curvature="0" />
    <text
       xml:space="preserve"
       style="font-size:40px;font-style:normal;font-weight:normal;line-height:125%;letter-spacing:0px;word-spacing:0px;fill:#000000;fill-opacity:1;stroke:none;font-family:Sans"
       x="-284.28571"
       y="560.93359"
       id="text2985-8"
       sodipodi:linespacing="125%"><tspan
         sodipodi:role="line"
         id="tspan2987-8"
         x="-284.28571"
         y="560.93359">6</tspan></text>
    <path
       transform="translate(-435.7143,294.28572)"
       sodipodi:type="arc"
       id="path2989-7"
       sodipodi:cx="164.28572"
       sodipodi:cy="248.07646"
       sodipodi:rx="41.42857"
       sodipodi:ry="44.285713"
       d="m 205.71429,248.07646 c 0,24.45833 -18.5482,44.28571 -41.42857,44.28571 -22.88037,0 -41.42857,-19.82738 -41.42857,-44.28571 0,-24.45832 18.5482,-44.28571 41.42857,-44.28571 22.88037,0 41.42857,19.82739 41.42857,44.28571 z"
       style="fill:none;stroke:#000000;stroke-width:5;stroke-miterlimit:4;stroke-opacity:1;stroke-dasharray:none" />
    <path
       style="fill:none;stroke:#000000;stroke-width:5;stroke-linecap:butt;stroke-linejoin:miter;stroke-miterlimit:4;stroke-opacity:1;stroke-dasharray:none"
       d="m -295.71429,578.07646 -77.14287,134.28572 188.57143,-2.85714 -62.85713,-128.57143"
       id="path3767-4"
       inkscape:connector-curvature="0" />
    <text
       xml:space="preserve"
       style="font-size:40px;font-style:normal;font-weight:normal;line-height:125%;letter-spacing:0px;word-spacing:0px;fill:#000000;fill-opacity:1;stroke:none;font-family:Sans"
       x="150.00002"
       y="569.50507"
       id="text2985-2"
       sodipodi:linespacing="125%"><tspan
         sodipodi:role="line"
         id="tspan2987-1"
         x="150.00002"
         y="569.50507">4</tspan></text>
    <path
       transform="translate(-1.4285771,302.85714)"
       sodipodi:type="arc"
       id="path2989-2"
       sodipodi:cx="164.28572"
       sodipodi:cy="248.07646"
       sodipodi:rx="41.42857"
       sodipodi:ry="44.285713"
       d="m 205.71429,248.07646 c 0,24.45833 -18.5482,44.28571 -41.42857,44.28571 -22.88037,0 -41.42857,-19.82738 -41.42857,-44.28571 0,-24.45832 18.5482,-44.28571 41.42857,-44.28571 22.88037,0 41.42857,19.82739 41.42857,44.28571 z"
       style="fill:none;stroke:#000000;stroke-width:5;stroke-miterlimit:4;stroke-opacity:1;stroke-dasharray:none" />
    <path
       style="fill:none;stroke:#000000;stroke-width:5;stroke-linecap:butt;stroke-linejoin:miter;stroke-miterlimit:4;stroke-opacity:1;stroke-dasharray:none"
       d="M 138.57143,586.64789 61.428573,720.93361 250,718.07647 187.14286,589.50504"
       id="path3767-1"
       inkscape:connector-curvature="0" />
    <text
       xml:space="preserve"
       style="font-size:40px;font-style:normal;font-weight:normal;line-height:125%;letter-spacing:0px;word-spacing:0px;fill:#000000;fill-opacity:1;stroke:none;font-family:Sans"
       x="372.85715"
       y="415.21933"
       id="text2985-7"
       sodipodi:linespacing="125%"><tspan
         sodipodi:role="line"
         id="tspan2987-2"
         x="372.85715"
         y="415.21933">2</tspan></text>
    <path
       transform="translate(221.42856,148.57142)"
       sodipodi:type="arc"
       id="path2989-63"
       sodipodi:cx="164.28572"
       sodipodi:cy="248.07646"
       sodipodi:rx="41.42857"
       sodipodi:ry="44.285713"
       d="m 205.71429,248.07646 c 0,24.45833 -18.5482,44.28571 -41.42857,44.28571 -22.88037,0 -41.42857,-19.82738 -41.42857,-44.28571 0,-24.45832 18.5482,-44.28571 41.42857,-44.28571 22.88037,0 41.42857,19.82739 41.42857,44.28571 z"
       style="fill:none;stroke:#000000;stroke-width:5;stroke-miterlimit:4;stroke-opacity:1;stroke-dasharray:none" />
    <path
       style="fill:none;stroke:#000000;stroke-width:5;stroke-linecap:butt;stroke-linejoin:miter;stroke-miterlimit:4;stroke-opacity:1;stroke-dasharray:none"
       d="M 361.42856,432.36218 284.2857,566.64789 472.85713,563.79075 409.99999,435.21933"
       id="path3767-6"
       inkscape:connector-curvature="0" />
    <text
       xml:space="preserve"
       style="font-size:40px;font-style:normal;font-weight:normal;line-height:125%;letter-spacing:0px;word-spacing:0px;fill:#000000;fill-opacity:1;stroke:none;font-family:Sans"
       x="541.42859"
       y="560.93365"
       id="text2985-0"
       sodipodi:linespacing="125%"><tspan
         sodipodi:role="line"
         id="tspan2987-88"
         x="541.42859"
         y="560.93365">10</tspan></text>
    <path
       transform="translate(398.57141,297.14286)"
       sodipodi:type="arc"
       id="path2989-70"
       sodipodi:cx="164.28572"
       sodipodi:cy="248.07646"
       sodipodi:rx="41.42857"
       sodipodi:ry="44.285713"
       d="m 205.71429,248.07646 c 0,24.45833 -18.5482,44.28571 -41.42857,44.28571 -22.88037,0 -41.42857,-19.82738 -41.42857,-44.28571 0,-24.45832 18.5482,-44.28571 41.42857,-44.28571 22.88037,0 41.42857,19.82739 41.42857,44.28571 z"
       style="fill:none;stroke:#000000;stroke-width:5;stroke-miterlimit:4;stroke-opacity:1;stroke-dasharray:none" />
    <path
       style="fill:none;stroke:#000000;stroke-width:5;stroke-linecap:butt;stroke-linejoin:miter;stroke-miterlimit:4;stroke-opacity:1;stroke-dasharray:none"
       d="M 538.57141,580.93361 461.42855,715.21932 649.99994,712.36218 587.14286,583.79076"
       id="path3767-8"
       inkscape:connector-curvature="0" />
    <text
       xml:space="preserve"
       style="font-size:40px;font-style:normal;font-weight:normal;line-height:125%;letter-spacing:0px;word-spacing:0px;fill:#000000;fill-opacity:1;stroke:none;font-family:Sans"
       x="764.28564"
       y="395.21939"
       id="text2985-9"
       sodipodi:linespacing="125%"><tspan
         sodipodi:role="line"
         id="tspan2987-98"
         x="764.28564"
         y="395.21939">8</tspan></text>
    <path
       transform="translate(612.85712,128.57143)"
       sodipodi:type="arc"
       id="path2989-4"
       sodipodi:cx="164.28572"
       sodipodi:cy="248.07646"
       sodipodi:rx="41.42857"
       sodipodi:ry="44.285713"
       d="m 205.71429,248.07646 c 0,24.45833 -18.5482,44.28571 -41.42857,44.28571 -22.88037,0 -41.42857,-19.82738 -41.42857,-44.28571 0,-24.45832 18.5482,-44.28571 41.42857,-44.28571 22.88037,0 41.42857,19.82739 41.42857,44.28571 z"
       style="fill:none;stroke:#000000;stroke-width:5;stroke-miterlimit:4;stroke-opacity:1;stroke-dasharray:none" />
    <path
       style="fill:none;stroke:#000000;stroke-width:5;stroke-linecap:butt;stroke-linejoin:miter;stroke-miterlimit:4;stroke-opacity:1;stroke-dasharray:none"
       d="m 752.85724,412.36218 -77.1429,134.28572 188.5714,-2.85714 -62.8571,-128.57143"
       id="path3767-2"
       inkscape:connector-curvature="0" />
    <text
       xml:space="preserve"
       style="font-size:40px;font-style:normal;font-weight:normal;line-height:125%;letter-spacing:0px;word-spacing:0px;fill:#000000;fill-opacity:1;stroke:none;font-family:Sans"
       x="972.85712"
       y="226.64787"
       id="text2985-6"
       sodipodi:linespacing="125%"><tspan
         sodipodi:role="line"
         id="tspan2987-87"
         x="972.85712"
         y="226.64787">5</tspan></text>
    <path
       transform="translate(821.42865,-39.999999)"
       sodipodi:type="arc"
       id="path2989-8"
       sodipodi:cx="164.28572"
       sodipodi:cy="248.07646"
       sodipodi:rx="41.42857"
       sodipodi:ry="44.285713"
       d="m 205.71429,248.07646 c 0,24.45833 -18.5482,44.28571 -41.42857,44.28571 -22.88037,0 -41.42857,-19.82738 -41.42857,-44.28571 0,-24.45832 18.5482,-44.28571 41.42857,-44.28571 22.88037,0 41.42857,19.82739 41.42857,44.28571 z"
       style="fill:none;stroke:#000000;stroke-width:5;stroke-miterlimit:4;stroke-opacity:1;stroke-dasharray:none" />
    <path
       style="fill:none;stroke:#000000;stroke-width:5;stroke-linecap:butt;stroke-linejoin:miter;stroke-miterlimit:4;stroke-opacity:1;stroke-dasharray:none"
       d="M 961.42855,243.79075 884.28575,378.07647 1072.8571,375.21933 1010,246.6479"
       id="path3767-5"
       inkscape:connector-curvature="0" />
    <path
       style="fill:none;stroke:#000000;stroke-width:1px;stroke-linecap:butt;stroke-linejoin:miter;stroke-opacity:1"
       d="m -102.85717,408.07647 c -142.85714,91.42857 -145.71428,94.28571 -145.71428,94.28571"
       id="path4296"
       inkscape:connector-curvature="0" />
    <path
       style="fill:none;stroke:#000000;stroke-width:1px;stroke-linecap:butt;stroke-linejoin:miter;stroke-opacity:1"
       d="M 179.99998,505.21933 C 342.85712,396.6479 342.85712,396.6479 342.85712,396.6479"
       id="path4298"
       inkscape:connector-curvature="0" />
    <path
       style="fill:none;stroke:#000000;stroke-width:1px;stroke-linecap:butt;stroke-linejoin:miter;stroke-opacity:1"
       d="M 582.85712,510.93361 C 740.00004,393.79076 740.00004,393.79076 740.00004,393.79076"
       id="path4300"
       inkscape:connector-curvature="0" />
    <path
       style="fill:none;stroke:#000000;stroke-width:1px;stroke-linecap:butt;stroke-linejoin:miter;stroke-opacity:1"
       d="M 800,338.07647 C 948.57143,206.6479 948.57143,206.6479 948.57143,206.6479"
       id="path4538"
       inkscape:connector-curvature="0" />
  </g>
</svg>
