<?xml version="1.0" encoding="UTF-8" standalone="no"?>
<!-- Created with Inkscape (http://www.inkscape.org/) -->

<svg
   xmlns:dc="http://purl.org/dc/elements/1.1/"
   xmlns:cc="http://creativecommons.org/ns#"
   xmlns:rdf="http://www.w3.org/1999/02/22-rdf-syntax-ns#"
   xmlns:svg="http://www.w3.org/2000/svg"
   xmlns="http://www.w3.org/2000/svg"
   xmlns:sodipodi="http://sodipodi.sourceforge.net/DTD/sodipodi-0.dtd"
   xmlns:inkscape="http://www.inkscape.org/namespaces/inkscape"
   width="1256.9062"
   height="707.92859"
   id="svg4463"
   version="1.1"
   inkscape:version="0.48.3.1 r9886"
   sodipodi:docname="deleteMin5.svg">
  <defs
     id="defs4465" />
  <sodipodi:namedview
     id="base"
     pagecolor="#ffffff"
     bordercolor="#666666"
     borderopacity="1.0"
     inkscape:pageopacity="0.0"
     inkscape:pageshadow="2"
     inkscape:zoom="0.35"
     inkscape:cx="952.21875"
     inkscape:cy="525.41908"
     inkscape:document-units="px"
     inkscape:current-layer="layer1"
     showgrid="false"
     inkscape:window-width="1022"
     inkscape:window-height="598"
     inkscape:window-x="0"
     inkscape:window-y="0"
     inkscape:window-maximized="0"
     fit-margin-top="0"
     fit-margin-left="0"
     fit-margin-right="0"
     fit-margin-bottom="0" />
  <metadata
     id="metadata4468">
    <rdf:RDF>
      <cc:Work
         rdf:about="">
        <dc:format>image/svg+xml</dc:format>
        <dc:type
           rdf:resource="http://purl.org/dc/dcmitype/StillImage" />
        <dc:title></dc:title>
      </cc:Work>
    </rdf:RDF>
  </metadata>
  <g
     inkscape:label="Layer 1"
     inkscape:groupmode="layer"
     id="layer1"
     transform="translate(577.21875,-349.85267)">
    <text
       xml:space="preserve"
       style="font-size:40px;font-style:normal;font-weight:normal;line-height:125%;letter-spacing:0px;word-spacing:0px;fill:#000000;fill-opacity:1;stroke:none;font-family:Sans"
       x="-272.85715"
       y="592.36218"
       id="text2985"
       sodipodi:linespacing="125%"><tspan
         sodipodi:role="line"
         id="tspan2987"
         x="-272.85715"
         y="592.36218">3</tspan></text>
    <path
       transform="translate(-424.28574,325.71429)"
       sodipodi:type="arc"
       id="path2989"
       sodipodi:cx="164.28572"
       sodipodi:cy="248.07646"
       sodipodi:rx="41.42857"
       sodipodi:ry="44.285713"
       d="m 205.71429,248.07646 c 0,24.45833 -18.5482,44.28571 -41.42857,44.28571 -22.88037,0 -41.42857,-19.82738 -41.42857,-44.28571 0,-24.45832 18.5482,-44.28571 41.42857,-44.28571 22.88037,0 41.42857,19.82739 41.42857,44.28571 z"
       style="fill:none;stroke:#000000;stroke-width:5;stroke-miterlimit:4;stroke-opacity:1;stroke-dasharray:none" />
    <path
       style="fill:none;stroke:#000000;stroke-width:5;stroke-linecap:butt;stroke-linejoin:miter;stroke-miterlimit:4;stroke-opacity:1;stroke-dasharray:none"
       d="m -284.28574,609.50504 -77.14286,134.28572 188.57143,-2.85714 -62.85714,-128.57143"
       id="path3767"
       inkscape:connector-curvature="0" />
    <text
       xml:space="preserve"
       style="font-size:40px;font-style:normal;font-weight:normal;line-height:125%;letter-spacing:0px;word-spacing:0px;fill:#000000;fill-opacity:1;stroke:none;font-family:Sans"
       x="-484.28571"
       y="738.07648"
       id="text2985-8"
       sodipodi:linespacing="125%"><tspan
         sodipodi:role="line"
         id="tspan2987-8"
         x="-484.28571"
         y="738.07648">6</tspan></text>
    <path
       transform="translate(-635.7143,471.42858)"
       sodipodi:type="arc"
       id="path2989-7"
       sodipodi:cx="164.28572"
       sodipodi:cy="248.07646"
       sodipodi:rx="41.42857"
       sodipodi:ry="44.285713"
       d="m 205.71429,248.07646 c 0,24.45833 -18.5482,44.28571 -41.42857,44.28571 -22.88037,0 -41.42857,-19.82738 -41.42857,-44.28571 0,-24.45832 18.5482,-44.28571 41.42857,-44.28571 22.88037,0 41.42857,19.82739 41.42857,44.28571 z"
       style="fill:none;stroke:#000000;stroke-width:5;stroke-miterlimit:4;stroke-opacity:1;stroke-dasharray:none" />
    <path
       style="fill:none;stroke:#000000;stroke-width:5;stroke-linecap:butt;stroke-linejoin:miter;stroke-miterlimit:4;stroke-opacity:1;stroke-dasharray:none"
       d="m -495.71429,755.21932 -77.14287,134.28572 188.57143,-2.85714 -62.85713,-128.57143"
       id="path3767-4"
       inkscape:connector-curvature="0" />
    <text
       xml:space="preserve"
       style="font-size:40px;font-style:normal;font-weight:normal;line-height:125%;letter-spacing:0px;word-spacing:0px;fill:#000000;fill-opacity:1;stroke:none;font-family:Sans"
       x="575.71429"
       y="655.21936"
       id="text2985-2"
       sodipodi:linespacing="125%"><tspan
         sodipodi:role="line"
         id="tspan2987-1"
         x="575.71429"
         y="655.21936">4</tspan></text>
    <path
       transform="translate(424.28571,388.57143)"
       sodipodi:type="arc"
       id="path2989-2"
       sodipodi:cx="164.28572"
       sodipodi:cy="248.07646"
       sodipodi:rx="41.42857"
       sodipodi:ry="44.285713"
       d="m 205.71429,248.07646 c 0,24.45833 -18.5482,44.28571 -41.42857,44.28571 -22.88037,0 -41.42857,-19.82738 -41.42857,-44.28571 0,-24.45832 18.5482,-44.28571 41.42857,-44.28571 22.88037,0 41.42857,19.82739 41.42857,44.28571 z"
       style="fill:none;stroke:#000000;stroke-width:5;stroke-miterlimit:4;stroke-opacity:1;stroke-dasharray:none" />
    <path
       style="fill:none;stroke:#000000;stroke-width:5;stroke-linecap:butt;stroke-linejoin:miter;stroke-miterlimit:4;stroke-opacity:1;stroke-dasharray:none"
       d="M 564.28571,672.36218 487.14286,806.6479 675.71428,803.79076 612.85714,675.21933"
       id="path3767-1"
       inkscape:connector-curvature="0" />
    <text
       xml:space="preserve"
       style="font-size:40px;font-style:normal;font-weight:normal;line-height:125%;letter-spacing:0px;word-spacing:0px;fill:#000000;fill-opacity:1;stroke:none;font-family:Sans"
       x="372.85715"
       y="415.21933"
       id="text2985-7"
       sodipodi:linespacing="125%"><tspan
         sodipodi:role="line"
         id="tspan2987-2"
         x="372.85715"
         y="415.21933">2</tspan></text>
    <path
       transform="translate(221.42856,148.57142)"
       sodipodi:type="arc"
       id="path2989-63"
       sodipodi:cx="164.28572"
       sodipodi:cy="248.07646"
       sodipodi:rx="41.42857"
       sodipodi:ry="44.285713"
       d="m 205.71429,248.07646 c 0,24.45833 -18.5482,44.28571 -41.42857,44.28571 -22.88037,0 -41.42857,-19.82738 -41.42857,-44.28571 0,-24.45832 18.5482,-44.28571 41.42857,-44.28571 22.88037,0 41.42857,19.82739 41.42857,44.28571 z"
       style="fill:none;stroke:#000000;stroke-width:5;stroke-miterlimit:4;stroke-opacity:1;stroke-dasharray:none" />
    <path
       style="fill:none;stroke:#000000;stroke-width:5;stroke-linecap:butt;stroke-linejoin:miter;stroke-miterlimit:4;stroke-opacity:1;stroke-dasharray:none"
       d="M 361.42856,432.36218 284.2857,566.64789 472.85713,563.79075 409.99999,435.21933"
       id="path3767-6"
       inkscape:connector-curvature="0" />
    <text
       xml:space="preserve"
       style="font-size:40px;font-style:normal;font-weight:normal;line-height:125%;letter-spacing:0px;word-spacing:0px;fill:#000000;fill-opacity:1;stroke:none;font-family:Sans"
       x="-287.14285"
       y="900.93365"
       id="text2985-0"
       sodipodi:linespacing="125%"><tspan
         sodipodi:role="line"
         id="tspan2987-88"
         x="-287.14285"
         y="900.93365">10</tspan></text>
    <path
       transform="translate(-430.00002,637.14286)"
       sodipodi:type="arc"
       id="path2989-70"
       sodipodi:cx="164.28572"
       sodipodi:cy="248.07646"
       sodipodi:rx="41.42857"
       sodipodi:ry="44.285713"
       d="m 205.71429,248.07646 c 0,24.45833 -18.5482,44.28571 -41.42857,44.28571 -22.88037,0 -41.42857,-19.82738 -41.42857,-44.28571 0,-24.45832 18.5482,-44.28571 41.42857,-44.28571 22.88037,0 41.42857,19.82739 41.42857,44.28571 z"
       style="fill:none;stroke:#000000;stroke-width:5;stroke-miterlimit:4;stroke-opacity:1;stroke-dasharray:none" />
    <path
       style="fill:none;stroke:#000000;stroke-width:5;stroke-linecap:butt;stroke-linejoin:miter;stroke-miterlimit:4;stroke-opacity:1;stroke-dasharray:none"
       d="m -290.00002,920.93361 -77.14286,134.28569 188.57139,-2.8571 -62.85708,-128.57144"
       id="path3767-8"
       inkscape:connector-curvature="0" />
    <text
       xml:space="preserve"
       style="font-size:40px;font-style:normal;font-weight:normal;line-height:125%;letter-spacing:0px;word-spacing:0px;fill:#000000;fill-opacity:1;stroke:none;font-family:Sans"
       x="-64.285782"
       y="735.21936"
       id="text2985-9"
       sodipodi:linespacing="125%"><tspan
         sodipodi:role="line"
         id="tspan2987-98"
         x="-64.285782"
         y="735.21936">8</tspan></text>
    <path
       transform="translate(-215.71431,468.57143)"
       sodipodi:type="arc"
       id="path2989-4"
       sodipodi:cx="164.28572"
       sodipodi:cy="248.07646"
       sodipodi:rx="41.42857"
       sodipodi:ry="44.285713"
       d="m 205.71429,248.07646 c 0,24.45833 -18.5482,44.28571 -41.42857,44.28571 -22.88037,0 -41.42857,-19.82738 -41.42857,-44.28571 0,-24.45832 18.5482,-44.28571 41.42857,-44.28571 22.88037,0 41.42857,19.82739 41.42857,44.28571 z"
       style="fill:none;stroke:#000000;stroke-width:5;stroke-miterlimit:4;stroke-opacity:1;stroke-dasharray:none" />
    <path
       style="fill:none;stroke:#000000;stroke-width:5;stroke-linecap:butt;stroke-linejoin:miter;stroke-miterlimit:4;stroke-opacity:1;stroke-dasharray:none"
       d="M -75.714189,752.36218 -152.85709,886.6479 35.714311,883.79076 -27.142789,755.21933"
       id="path3767-2"
       inkscape:connector-curvature="0" />
    <text
       xml:space="preserve"
       style="font-size:40px;font-style:normal;font-weight:normal;line-height:125%;letter-spacing:0px;word-spacing:0px;fill:#000000;fill-opacity:1;stroke:none;font-family:Sans"
       x="144.28569"
       y="566.64789"
       id="text2985-6"
       sodipodi:linespacing="125%"><tspan
         sodipodi:role="line"
         id="tspan2987-87"
         x="144.28569"
         y="566.64789">5</tspan></text>
    <path
       transform="translate(-7.1427786,300)"
       sodipodi:type="arc"
       id="path2989-8"
       sodipodi:cx="164.28572"
       sodipodi:cy="248.07646"
       sodipodi:rx="41.42857"
       sodipodi:ry="44.285713"
       d="m 205.71429,248.07646 c 0,24.45833 -18.5482,44.28571 -41.42857,44.28571 -22.88037,0 -41.42857,-19.82738 -41.42857,-44.28571 0,-24.45832 18.5482,-44.28571 41.42857,-44.28571 22.88037,0 41.42857,19.82739 41.42857,44.28571 z"
       style="fill:none;stroke:#000000;stroke-width:5;stroke-miterlimit:4;stroke-opacity:1;stroke-dasharray:none" />
    <path
       style="fill:none;stroke:#000000;stroke-width:5;stroke-linecap:butt;stroke-linejoin:miter;stroke-miterlimit:4;stroke-opacity:1;stroke-dasharray:none"
       d="M 132.85712,583.79075 55.714321,718.07647 244.28567,715.21933 181.42857,586.6479"
       id="path3767-5"
       inkscape:connector-curvature="0" />
    <path
       style="fill:none;stroke:#000000;stroke-width:1px;stroke-linecap:butt;stroke-linejoin:miter;stroke-opacity:1"
       d="m -302.85717,585.21933 c -142.85714,91.42857 -145.71428,94.28571 -145.71428,94.28571"
       id="path4296"
       inkscape:connector-curvature="0" />
    <path
       style="fill:none;stroke:#000000;stroke-width:1px;stroke-linecap:butt;stroke-linejoin:miter;stroke-opacity:1"
       d="M 179.99998,505.21933 C 342.85712,396.6479 342.85712,396.6479 342.85712,396.6479"
       id="path4298"
       inkscape:connector-curvature="0" />
    <path
       style="fill:none;stroke:#000000;stroke-width:1px;stroke-linecap:butt;stroke-linejoin:miter;stroke-opacity:1"
       d="M -245.71431,850.93361 C -88.571389,733.79076 -88.571389,733.79076 -88.571389,733.79076"
       id="path4300"
       inkscape:connector-curvature="0" />
    <path
       style="fill:none;stroke:#000000;stroke-width:1px;stroke-linecap:butt;stroke-linejoin:miter;stroke-opacity:1"
       d="M -28.571429,678.07647 C 120,546.6479 120,546.6479 120,546.6479"
       id="path4538"
       inkscape:connector-curvature="0" />
    <path
       style="fill:none;stroke:#000000;stroke-width:1px;stroke-linecap:butt;stroke-linejoin:miter;stroke-opacity:1"
       d="M 422.85714,409.50504 568.57143,595.21933"
       id="path4578"
       inkscape:connector-curvature="0" />
    <path
       style="fill:none;stroke:#000000;stroke-width:1px;stroke-linecap:butt;stroke-linejoin:miter;stroke-opacity:1"
       d="M 137.14286,182.14283 C 728.57143,22.142831 728.57143,22.142831 728.57143,22.142831"
       id="path7440"
       inkscape:connector-curvature="0"
       transform="translate(-375.35716,349.86217)" />
  </g>
</svg>
