<?xml version="1.0" encoding="UTF-8" standalone="no"?>
<!DOCTYPE svg PUBLIC "-//W3C//DTD SVG 1.0//EN" "http://www.w3.org/TR/2001/REC-SVG-20010904/DTD/svg10.dtd">
<!-- Generated by Microsoft Visio 11.0, SVG Export, v1.0 simpleMeld.svg simpleMeld -->
<svg xmlns="http://www.w3.org/2000/svg" xmlns:xlink="http://www.w3.org/1999/xlink" xmlns:ev="http://www.w3.org/2001/xml-events"
		xmlns:v="http://schemas.microsoft.com/visio/2003/SVGExtensions/" width="8.5in" height="11in" viewBox="0 0 612 792"
		xml:space="preserve" color-interpolation-filters="sRGB" class="st8">
	<v:documentProperties v:langID="1033" v:viewMarkup="false">
		<v:userDefs>
			<v:ud v:nameU="msvNoAutoConnect" v:val="VT0(1):26"/>
			<v:ud v:nameU="msvSubprocessMaster" v:prompt="" v:val="VT4(Multiple process)"/>
		</v:userDefs>
	</v:documentProperties>

	<style type="text/css">
	<![CDATA[
		.st1 {visibility:visible}
		.st2 {fill:#cdcdcd;fill-opacity:0.5;stroke:#cdcdcd;stroke-linecap:round;stroke-linejoin:round;stroke-opacity:0.5;stroke-width:0.25}
		.st3 {fill:url(#grad30-6);stroke:#404040;stroke-linecap:round;stroke-linejoin:round;stroke-width:0.25}
		.st4 {fill:none;stroke:none;stroke-linecap:round;stroke-linejoin:round;stroke-width:0.25}
		.st5 {fill:#000000;font-family:Calibri;font-size:1.00001em}
		.st6 {stroke:#cdcdcd;stroke-linecap:round;stroke-linejoin:round;stroke-opacity:0.5;stroke-width:0.25}
		.st7 {stroke:#404040;stroke-linecap:round;stroke-linejoin:round;stroke-width:0.25}
		.st8 {fill:none;fill-rule:evenodd;font-size:12px;overflow:visible;stroke-linecap:square;stroke-miterlimit:3}
	]]>
	</style>

	<defs id="Patterns_And_Gradients">
		<linearGradient id="grad30-6" v:fillPattern="30" v:foreground="#c1ce9b" v:background="#b3c283" x1="0" y1="1" x2="0" y2="0">
			<stop offset="0" style="stop-color:#c1ce9b;stop-opacity:1"/>
			<stop offset="1" style="stop-color:#b3c283;stop-opacity:1"/>
		</linearGradient>
		<linearGradient id="grad30-23" v:fillPattern="30" v:foreground="#f0f0f0" v:background="#ffffff" x1="0" y1="1" x2="0" y2="0">
			<stop offset="0" style="stop-color:#f0f0f0;stop-opacity:1"/>
			<stop offset="1" style="stop-color:#ffffff;stop-opacity:1"/>
		</linearGradient>
	</defs>
	<g v:mID="0" v:index="1" v:groupContext="foregroundPage">
		<v:userDefs>
			<v:ud v:nameU="msvThemeColors" v:val="VT0(36):26"/>
			<v:ud v:nameU="msvThemeEffects" v:val="VT0(16):26"/>
			<v:ud v:nameU="msvThemeOrder" v:val="VT0(0):26"/>
		</v:userDefs>
		<title>simpleMeld</title>
		<v:pageProperties v:drawingScale="1" v:pageScale="1" v:drawingUnits="0" v:shadowOffsetX="9" v:shadowOffsetY="-9"/>
		<v:layer v:name="Flowchart" v:index="0"/>
		<v:layer v:name="Connector" v:index="1"/>
		<g id="shape1-1" v:mID="1" v:groupContext="shape" transform="translate(945.356,465.635) rotate(89.624) scale(-1,1)">
			<title>45 degree single</title>
			<v:userDefs>
				<v:ud v:nameU="visVersion" v:val="VT0(14):26"/>
				<v:ud v:nameU="msvThemeColors" v:val="VT0(36):26"/>
				<v:ud v:nameU="msvThemeEffects" v:val="VT0(16):26"/>
			</v:userDefs>
			<g id="shadow1-2" v:groupContext="shadow" v:shadowOffsetX="1.44" v:shadowOffsetY="-1.44" v:shadowType="1"
					transform="matrix(1,-4.06999E-019,-4.06999E-019,1,-1.44942,-1.43052)" class="st1">
				<path d="M0 774 L18 756 L18 767.88 L56.72 767.88 L56.72 780.12 L18 780.12 L18 792 L0 774 Z" class="st2"/>
			</g>
			<path d="M0 774 L18 756 L18 767.88 L56.72 767.88 L56.72 780.12 L18 780.12 L18 792 L0 774 Z" class="st3"/>
		</g>
		<g id="group14-7" transform="translate(36,-373.188)" v:mID="14" v:groupContext="group">
			<v:userDefs>
				<v:ud v:nameU="msvThemeColors" v:val="VT0(36):26"/>
				<v:ud v:nameU="msvThemeEffects" v:val="VT0(16):26"/>
			</v:userDefs>
			<title>Sheet.14</title>
			<g id="shape7-8" v:mID="7" v:groupContext="shape" transform="translate(29.75,-66.5)">
				<title>Sheet.7</title>
				<desc>10</desc>
				<v:userDefs>
					<v:ud v:nameU="msvThemeColors" v:val="VT0(36):26"/>
					<v:ud v:nameU="msvThemeEffects" v:val="VT0(16):26"/>
				</v:userDefs>
				<v:textBlock v:margins="rect(1,1,1,1)"/>
				<v:textRect cx="49" cy="787" width="98" height="10"/>
				<rect x="0" y="782" width="98" height="10" class="st4"/>
				<text x="42.92" y="790.6" class="st5" v:langID="1033"><v:paragraph v:horizAlign="1"/><v:tabList/>10</text>			</g>
			<g id="shape3-11" v:mID="3" v:groupContext="shape" transform="translate(36.625,-25.875)">
				<title>Sheet.3</title>
				<desc>14</desc>
				<v:userDefs>
					<v:ud v:nameU="msvThemeColors" v:val="VT0(36):26"/>
					<v:ud v:nameU="msvThemeEffects" v:val="VT0(16):26"/>
				</v:userDefs>
				<v:textBlock v:margins="rect(1,1,1,1)"/>
				<v:textRect cx="18" cy="778.5" width="36" height="27"/>
				<rect x="0" y="765" width="36" height="27" class="st4"/>
				<text x="11.92" y="782.1" class="st5" v:langID="1033"><v:paragraph v:horizAlign="1"/><v:tabList/>14</text>			</g>
			<g id="shape4-14" v:mID="4" v:groupContext="shape" transform="translate(55.125,-31.5)">
				<title>Sheet.4</title>
				<desc>45</desc>
				<v:userDefs>
					<v:ud v:nameU="msvThemeColors" v:val="VT0(36):26"/>
					<v:ud v:nameU="msvThemeEffects" v:val="VT0(16):26"/>
				</v:userDefs>
				<v:textBlock v:margins="rect(1,1,1,1)"/>
				<v:textRect cx="49" cy="787" width="98" height="10"/>
				<rect x="0" y="782" width="98" height="10" class="st4"/>
				<text x="42.92" y="790.6" class="st5" v:langID="1033"><v:paragraph v:horizAlign="1"/><v:tabList/>45</text>			</g>
			<g id="shape2-17" v:mID="2" v:groupContext="shape" transform="translate(674.933,1229.76) rotate(129.936)">
				<title>Sheet.2</title>
				<v:userDefs>
					<v:ud v:nameU="msvThemeColors" v:val="VT0(36):26"/>
					<v:ud v:nameU="msvThemeEffects" v:val="VT0(16):26"/>
				</v:userDefs>
				<g id="shadow2-18" v:groupContext="shadow" v:shadowOffsetX="1.44" v:shadowOffsetY="-1.44" v:shadowType="1"
						transform="matrix(1,5.29091E-017,-6.00106E-017,1,0.179742,-2.02852)" class="st1">
					<path d="M0 785.53 A26.7203 16.4003 -44.62 0 0 28.04 785.53" class="st6"/>
				</g>
				<path d="M0 785.53 A26.7203 16.4003 -44.62 0 0 28.04 785.53" class="st7"/>
			</g>
			<g id="shape5-25" v:mID="5" v:groupContext="shape" transform="translate(697.897,217.086) rotate(50.0636)">
				<title>Sheet.5</title>
				<v:userDefs>
					<v:ud v:nameU="msvThemeColors" v:val="VT0(36):26"/>
					<v:ud v:nameU="msvThemeEffects" v:val="VT0(16):26"/>
				</v:userDefs>
				<g id="shadow5-26" v:groupContext="shadow" v:shadowOffsetX="1.44" v:shadowOffsetY="-1.44" v:shadowType="1"
						transform="matrix(1,-7.98515E-017,3.30682E-017,1,2.02852,-0.179742)" class="st1">
					<path d="M-0 792 A26.7203 16.4003 44.62 0 1 28.04 792" class="st6"/>
				</g>
				<path d="M-0 792 A26.7203 16.4003 44.62 0 1 28.04 792" class="st7"/>
			</g>
			<g id="shape6-32" v:mID="6" v:groupContext="shape">
				<title>Sheet.6</title>
				<desc>100</desc>
				<v:userDefs>
					<v:ud v:nameU="msvThemeColors" v:val="VT0(36):26"/>
					<v:ud v:nameU="msvThemeEffects" v:val="VT0(16):26"/>
				</v:userDefs>
				<v:textBlock v:margins="rect(1,1,1,1)"/>
				<v:textRect cx="49" cy="787" width="98" height="10"/>
				<rect x="0" y="782" width="98" height="10" class="st4"/>
				<text x="39.88" y="790.6" class="st5" v:langID="1033"><v:paragraph v:horizAlign="1"/><v:tabList/>100</text>			</g>
			<g id="shape8-35" v:mID="8" v:groupContext="shape" transform="translate(819.114,967.429) rotate(105.146)">
				<title>Sheet.8</title>
				<v:userDefs>
					<v:ud v:nameU="msvThemeColors" v:val="VT0(36):26"/>
					<v:ud v:nameU="msvThemeEffects" v:val="VT0(16):26"/>
				</v:userDefs>
				<g id="shadow8-36" v:groupContext="shadow" v:shadowOffsetX="1.44" v:shadowOffsetY="-1.44" v:shadowType="1"
						transform="matrix(1,-3.36103E-018,-7.80626E-018,1,1.01375,-1.76622)" class="st1">
					<path d="M0 792 L17.22 792" class="st6"/>
				</g>
				<path d="M0 792 L17.22 792" class="st7"/>
			</g>
		</g>
		<g id="group16-42" transform="translate(62.875,-216.5)" v:mID="16" v:groupContext="group">
			<v:userDefs>
				<v:ud v:nameU="msvThemeColors" v:val="VT0(36):26"/>
				<v:ud v:nameU="msvThemeEffects" v:val="VT0(16):26"/>
			</v:userDefs>
			<title>Sheet.16</title>
			<g id="shape17-43" v:mID="17" v:groupContext="shape" transform="translate(29.75,-66.5)">
				<title>Sheet.17</title>
				<desc>10</desc>
				<v:userDefs>
					<v:ud v:nameU="msvThemeColors" v:val="VT0(36):26"/>
					<v:ud v:nameU="msvThemeEffects" v:val="VT0(16):26"/>
				</v:userDefs>
				<v:textBlock v:margins="rect(1,1,1,1)"/>
				<v:textRect cx="49" cy="787" width="98" height="10"/>
				<rect x="0" y="782" width="98" height="10" class="st4"/>
				<text x="42.92" y="790.6" class="st5" v:langID="1033"><v:paragraph v:horizAlign="1"/><v:tabList/>10</text>			</g>
			<g id="shape18-46" v:mID="18" v:groupContext="shape" transform="translate(36.625,-25.875)">
				<title>Sheet.18</title>
				<desc>14</desc>
				<v:userDefs>
					<v:ud v:nameU="msvThemeColors" v:val="VT0(36):26"/>
					<v:ud v:nameU="msvThemeEffects" v:val="VT0(16):26"/>
				</v:userDefs>
				<v:textBlock v:margins="rect(1,1,1,1)"/>
				<v:textRect cx="18" cy="778.5" width="36" height="27"/>
				<rect x="0" y="765" width="36" height="27" class="st4"/>
				<text x="11.92" y="782.1" class="st5" v:langID="1033"><v:paragraph v:horizAlign="1"/><v:tabList/>14</text>			</g>
			<g id="shape19-49" v:mID="19" v:groupContext="shape" transform="translate(55.125,-31.5)">
				<title>Sheet.19</title>
				<desc>45</desc>
				<v:userDefs>
					<v:ud v:nameU="msvThemeColors" v:val="VT0(36):26"/>
					<v:ud v:nameU="msvThemeEffects" v:val="VT0(16):26"/>
				</v:userDefs>
				<v:textBlock v:margins="rect(1,1,1,1)"/>
				<v:textRect cx="49" cy="787" width="98" height="10"/>
				<rect x="0" y="782" width="98" height="10" class="st4"/>
				<text x="42.92" y="790.6" class="st5" v:langID="1033"><v:paragraph v:horizAlign="1"/><v:tabList/>45</text>			</g>
			<g id="shape20-52" v:mID="20" v:groupContext="shape" transform="translate(674.933,1229.76) rotate(129.936)">
				<title>Sheet.20</title>
				<v:userDefs>
					<v:ud v:nameU="msvThemeColors" v:val="VT0(36):26"/>
					<v:ud v:nameU="msvThemeEffects" v:val="VT0(16):26"/>
				</v:userDefs>
				<g id="shadow20-53" v:groupContext="shadow" v:shadowOffsetX="1.44" v:shadowOffsetY="-1.44" v:shadowType="1"
						transform="matrix(1,5.29091E-017,-6.00106E-017,1,0.179742,-2.02852)" class="st1">
					<path d="M0 785.53 A26.7203 16.4003 -44.62 0 0 28.04 785.53" class="st6"/>
				</g>
				<path d="M0 785.53 A26.7203 16.4003 -44.62 0 0 28.04 785.53" class="st7"/>
			</g>
			<g id="shape21-59" v:mID="21" v:groupContext="shape" transform="translate(697.897,217.086) rotate(50.0636)">
				<title>Sheet.21</title>
				<v:userDefs>
					<v:ud v:nameU="msvThemeColors" v:val="VT0(36):26"/>
					<v:ud v:nameU="msvThemeEffects" v:val="VT0(16):26"/>
				</v:userDefs>
				<g id="shadow21-60" v:groupContext="shadow" v:shadowOffsetX="1.44" v:shadowOffsetY="-1.44" v:shadowType="1"
						transform="matrix(1,-7.98515E-017,3.30682E-017,1,2.02852,-0.179742)" class="st1">
					<path d="M-0 792 A26.7203 16.4003 44.62 0 1 28.04 792" class="st6"/>
				</g>
				<path d="M-0 792 A26.7203 16.4003 44.62 0 1 28.04 792" class="st7"/>
			</g>
			<g id="shape22-66" v:mID="22" v:groupContext="shape">
				<title>Sheet.22</title>
				<desc>100</desc>
				<v:userDefs>
					<v:ud v:nameU="msvThemeColors" v:val="VT0(36):26"/>
					<v:ud v:nameU="msvThemeEffects" v:val="VT0(16):26"/>
				</v:userDefs>
				<v:textBlock v:margins="rect(1,1,1,1)"/>
				<v:textRect cx="49" cy="787" width="98" height="10"/>
				<rect x="0" y="782" width="98" height="10" class="st4"/>
				<text x="39.88" y="790.6" class="st5" v:langID="1033"><v:paragraph v:horizAlign="1"/><v:tabList/>100</text>			</g>
			<g id="shape23-69" v:mID="23" v:groupContext="shape" transform="translate(819.114,967.429) rotate(105.146)">
				<title>Sheet.23</title>
				<v:userDefs>
					<v:ud v:nameU="msvThemeColors" v:val="VT0(36):26"/>
					<v:ud v:nameU="msvThemeEffects" v:val="VT0(16):26"/>
				</v:userDefs>
				<g id="shadow23-70" v:groupContext="shadow" v:shadowOffsetX="1.44" v:shadowOffsetY="-1.44" v:shadowType="1"
						transform="matrix(1,-3.36103E-018,-7.80626E-018,1,1.01375,-1.76622)" class="st1">
					<path d="M0 792 L17.22 792" class="st6"/>
				</g>
				<path d="M0 792 L17.22 792" class="st7"/>
			</g>
		</g>
		<g id="group15-76" transform="translate(167,-401.25)" v:mID="15" v:groupContext="group">
			<v:userDefs>
				<v:ud v:nameU="msvThemeColors" v:val="VT0(36):26"/>
				<v:ud v:nameU="msvThemeEffects" v:val="VT0(16):26"/>
			</v:userDefs>
			<title>Sheet.15</title>
			<g id="shape10-77" v:mID="10" v:groupContext="shape">
				<title>Sheet.10</title>
				<desc>9</desc>
				<v:userDefs>
					<v:ud v:nameU="msvThemeColors" v:val="VT0(36):26"/>
					<v:ud v:nameU="msvThemeEffects" v:val="VT0(16):26"/>
				</v:userDefs>
				<v:textBlock v:margins="rect(1,1,1,1)"/>
				<v:textRect cx="49" cy="787" width="98" height="10"/>
				<rect x="0" y="782" width="98" height="10" class="st4"/>
				<text x="45.96" y="790.6" class="st5" v:langID="1033"><v:paragraph v:horizAlign="1"/><v:tabList/>9</text>			</g>
			<g id="shape11-80" v:mID="11" v:groupContext="shape" transform="translate(40,-0.375)">
				<title>Sheet.11</title>
				<desc>20</desc>
				<v:userDefs>
					<v:ud v:nameU="msvThemeColors" v:val="VT0(36):26"/>
					<v:ud v:nameU="msvThemeEffects" v:val="VT0(16):26"/>
				</v:userDefs>
				<v:textBlock v:margins="rect(1,1,1,1)"/>
				<v:textRect cx="49" cy="787" width="98" height="10"/>
				<rect x="0" y="782" width="98" height="10" class="st4"/>
				<text x="42.92" y="790.6" class="st5" v:langID="1033"><v:paragraph v:horizAlign="1"/><v:tabList/>20</text>			</g>
			<g id="shape9-83" v:mID="9" v:groupContext="shape" transform="translate(20.25,-25.5)">
				<title>Sheet.9</title>
				<desc>5</desc>
				<v:userDefs>
					<v:ud v:nameU="msvThemeColors" v:val="VT0(36):26"/>
					<v:ud v:nameU="msvThemeEffects" v:val="VT0(16):26"/>
				</v:userDefs>
				<v:textBlock v:margins="rect(1,1,1,1)"/>
				<v:textRect cx="49" cy="787" width="98" height="10"/>
				<rect x="0" y="782" width="98" height="10" class="st4"/>
				<text x="45.96" y="790.6" class="st5" v:langID="1033"><v:paragraph v:horizAlign="1"/><v:tabList/>5</text>			</g>
			<g id="shape13-86" v:mID="13" v:groupContext="shape" transform="translate(-411.649,1383.39) rotate(-139.96)">
				<title>Sheet.13</title>
				<v:userDefs>
					<v:ud v:nameU="msvThemeColors" v:val="VT0(36):26"/>
					<v:ud v:nameU="msvThemeEffects" v:val="VT0(16):26"/>
				</v:userDefs>
				<g id="shadow13-87" v:groupContext="shadow" v:shadowOffsetX="1.44" v:shadowOffsetY="-1.44" v:shadowType="1"
						transform="matrix(1,3.31766E-017,-8.01768E-017,1,-2.02884,-0.176088)" class="st1">
					<path d="M-0 786 A14.9904 13.4174 -40.04 0 0 23.51 786" class="st6"/>
				</g>
				<path d="M-0 786 A14.9904 13.4174 -40.04 0 0 23.51 786" class="st7"/>
			</g>
			<g id="shape12-93" v:mID="12" v:groupContext="shape" transform="translate(574.396,1370.34) rotate(139.96)">
				<title>Sheet.12</title>
				<v:userDefs>
					<v:ud v:nameU="msvThemeColors" v:val="VT0(36):26"/>
					<v:ud v:nameU="msvThemeEffects" v:val="VT0(16):26"/>
				</v:userDefs>
				<g id="shadow12-94" v:groupContext="shadow" v:shadowOffsetX="1.44" v:shadowOffsetY="-1.44" v:shadowType="1"
						transform="matrix(1,2.10877E-017,7.5081E-018,1,-0.176088,-2.02884)" class="st1">
					<path d="M-0 788.72 A22.4382 21.1917 -139.96 0 0 23.51 788.72" class="st6"/>
				</g>
				<path d="M-0 788.72 A22.4382 21.1917 -139.96 0 0 23.51 788.72" class="st7"/>
			</g>
		</g>
		<g id="group24-100" transform="translate(132,-279.5)" v:mID="24" v:groupContext="group">
			<v:userDefs>
				<v:ud v:nameU="msvThemeColors" v:val="VT0(36):26"/>
				<v:ud v:nameU="msvThemeEffects" v:val="VT0(16):26"/>
			</v:userDefs>
			<title>Sheet.24</title>
			<g id="shape25-101" v:mID="25" v:groupContext="shape">
				<title>Sheet.25</title>
				<desc>9</desc>
				<v:userDefs>
					<v:ud v:nameU="msvThemeColors" v:val="VT0(36):26"/>
					<v:ud v:nameU="msvThemeEffects" v:val="VT0(16):26"/>
				</v:userDefs>
				<v:textBlock v:margins="rect(1,1,1,1)"/>
				<v:textRect cx="49" cy="787" width="98" height="10"/>
				<rect x="0" y="782" width="98" height="10" class="st4"/>
				<text x="45.96" y="790.6" class="st5" v:langID="1033"><v:paragraph v:horizAlign="1"/><v:tabList/>9</text>			</g>
			<g id="shape26-104" v:mID="26" v:groupContext="shape" transform="translate(40,-0.375)">
				<title>Sheet.26</title>
				<desc>20</desc>
				<v:userDefs>
					<v:ud v:nameU="msvThemeColors" v:val="VT0(36):26"/>
					<v:ud v:nameU="msvThemeEffects" v:val="VT0(16):26"/>
				</v:userDefs>
				<v:textBlock v:margins="rect(1,1,1,1)"/>
				<v:textRect cx="49" cy="787" width="98" height="10"/>
				<rect x="0" y="782" width="98" height="10" class="st4"/>
				<text x="42.92" y="790.6" class="st5" v:langID="1033"><v:paragraph v:horizAlign="1"/><v:tabList/>20</text>			</g>
			<g id="shape27-107" v:mID="27" v:groupContext="shape" transform="translate(20.25,-25.5)">
				<title>Sheet.27</title>
				<desc>5</desc>
				<v:userDefs>
					<v:ud v:nameU="msvThemeColors" v:val="VT0(36):26"/>
					<v:ud v:nameU="msvThemeEffects" v:val="VT0(16):26"/>
				</v:userDefs>
				<v:textBlock v:margins="rect(1,1,1,1)"/>
				<v:textRect cx="49" cy="787" width="98" height="10"/>
				<rect x="0" y="782" width="98" height="10" class="st4"/>
				<text x="45.96" y="790.6" class="st5" v:langID="1033"><v:paragraph v:horizAlign="1"/><v:tabList/>5</text>			</g>
			<g id="shape28-110" v:mID="28" v:groupContext="shape" transform="translate(-411.649,1383.39) rotate(-139.96)">
				<title>Sheet.28</title>
				<v:userDefs>
					<v:ud v:nameU="msvThemeColors" v:val="VT0(36):26"/>
					<v:ud v:nameU="msvThemeEffects" v:val="VT0(16):26"/>
				</v:userDefs>
				<g id="shadow28-111" v:groupContext="shadow" v:shadowOffsetX="1.44" v:shadowOffsetY="-1.44" v:shadowType="1"
						transform="matrix(1,3.31766E-017,-8.01768E-017,1,-2.02884,-0.176088)" class="st1">
					<path d="M-0 786 A14.9904 13.4174 -40.04 0 0 23.51 786" class="st6"/>
				</g>
				<path d="M-0 786 A14.9904 13.4174 -40.04 0 0 23.51 786" class="st7"/>
			</g>
			<g id="shape29-117" v:mID="29" v:groupContext="shape" transform="translate(574.396,1370.34) rotate(139.96)">
				<title>Sheet.29</title>
				<v:userDefs>
					<v:ud v:nameU="msvThemeColors" v:val="VT0(36):26"/>
					<v:ud v:nameU="msvThemeEffects" v:val="VT0(16):26"/>
				</v:userDefs>
				<g id="shadow29-118" v:groupContext="shadow" v:shadowOffsetX="1.44" v:shadowOffsetY="-1.44" v:shadowType="1"
						transform="matrix(1,2.10877E-017,7.5081E-018,1,-0.176088,-2.02884)" class="st1">
					<path d="M-0 788.72 A22.4382 21.1917 -139.96 0 0 23.51 788.72" class="st6"/>
				</g>
				<path d="M-0 788.72 A22.4382 21.1917 -139.96 0 0 23.51 788.72" class="st7"/>
			</g>
		</g>
		<g id="shape30-124" v:mID="30" v:groupContext="shape" transform="translate(511.734,1193.03) rotate(156.038)">
			<title>Sheet.30</title>
			<v:userDefs>
				<v:ud v:nameU="msvThemeColors" v:val="VT0(36):26"/>
				<v:ud v:nameU="msvThemeEffects" v:val="VT0(16):26"/>
			</v:userDefs>
			<g id="shadow30-125" v:groupContext="shadow" v:shadowOffsetX="1.44" v:shadowOffsetY="-1.44" v:shadowType="1"
					transform="matrix(1,-4.32055E-017,4.61057E-017,1,-0.731049,-1.90073)" class="st1">
				<path d="M-0 783.56 A50.744 21.7491 -155.66 0 0 54.17 783.56" class="st6"/>
			</g>
			<path d="M-0 783.56 A50.744 21.7491 -155.66 0 0 54.17 783.56" class="st7"/>
		</g>
	</g>
</svg>
